# Blender v3.2.1 OBJ File: ''
# www.blender.org
o Cube
v 0.738935 2.430781 -0.331511
v 0.738935 0.430781 -0.331511
v 0.738935 2.430781 1.668489
v 0.738935 0.430781 1.668489
v -1.261065 2.430781 -0.331511
v -1.261065 0.430781 -0.331511
v -1.261065 2.430781 1.668489
v -1.261065 0.430781 1.668489
v 0.107446 2.430781 1.037001
v -0.629577 2.430781 1.037001
v 0.107446 2.430781 0.299978
v -0.629577 2.430781 0.299978
v 0.107446 5.652445 1.037001
v -0.629577 5.652445 1.037001
v 0.107446 5.652445 0.299978
v -0.629577 5.652445 0.299978
v 0.738935 1.871328 0.227942
v 0.738935 0.990234 0.227942
v 0.738935 1.871328 1.109037
v 0.738935 0.990234 1.109037
v 1.083577 2.483426 0.227942
v 4.233858 0.990234 0.227942
v 1.083577 2.483426 1.109037
v 4.233858 0.990234 1.109037
v -0.893441 0.798405 1.668489
v -0.893441 2.063157 1.668489
v 0.371310 2.063157 1.668489
v 0.371310 0.798405 1.668489
v -0.893441 0.798405 4.588850
v -0.893441 2.063157 4.588850
v 0.371310 2.063157 4.588850
v 0.371310 0.798405 4.588850
vt 0.000000 0.000000
vt 0.148402 0.068479
vt 0.068479 0.068479
vt 0.216881 0.216881
vt 0.039865 0.256746
vt 0.000000 0.216881
vt 0.433761 0.216881
vt 0.216881 0.000000
vt 0.433761 0.000000
vt 0.433761 0.216881
vt 0.216881 0.433761
vt 0.216881 0.216881
vt 0.000000 0.650642
vt 0.156213 0.589975
vt 0.216881 0.650642
vt 0.650642 0.216881
vt 0.433761 0.000000
vt 0.650642 0.000000
vt 0.079923 0.650642
vt 0.000000 1.000000
vt 0.000000 0.650642
vt 0.216881 0.216881
vt 0.068479 0.148402
vt 0.148402 0.148402
vt 0.216881 0.000000
vt 0.000000 0.216881
vt 0.159846 0.746188
vt 0.079923 0.826111
vt 0.079923 0.746188
vt 0.895869 0.533565
vt 0.815946 0.882924
vt 0.815946 0.533565
vt 0.925134 0.184207
vt 0.845211 0.533565
vt 0.845211 0.184207
vt 0.975792 0.533565
vt 0.895869 0.882924
vt 0.720400 0.533565
vt 0.624854 0.912556
vt 0.624854 0.533565
vt 0.000000 0.433761
vt 0.060667 0.589975
vt 0.156213 0.494428
vt 0.216881 0.433761
vt 0.060667 0.494428
vt 0.175469 0.746188
vt 0.079923 0.650642
vt 0.175469 0.650642
vt 0.815946 0.533565
vt 0.720400 0.912556
vt 0.720400 0.533565
vt 0.433761 0.912556
vt 0.529307 0.533566
vt 0.529307 0.912556
vt 0.624853 0.912556
vt 0.624853 0.533566
vt 0.216881 0.750446
vt 0.354031 0.433761
vt 0.354031 0.750446
vt 0.000000 0.433761
vt 0.177015 0.393896
vt 0.216881 0.433761
vt 0.177015 0.256746
vt 0.039865 0.393896
vt 0.787792 0.137150
vt 0.650642 0.000000
vt 0.787792 0.000000
vt 0.708061 0.216881
vt 0.570911 0.533565
vt 0.570911 0.216881
vt 0.845211 0.216881
vt 0.708061 0.533565
vt 0.570911 0.216881
vt 0.433761 0.533565
vt 0.433761 0.216881
vt 0.216881 0.216881
vt 0.433761 0.433761
vt 0.433761 0.216881
vt 0.079923 1.000000
vt 0.159846 0.826111
vt 0.925134 0.533565
vt 0.975792 0.882924
vt 0.720400 0.912556
vt 0.079923 0.746188
vt 0.815946 0.912556
vt 0.433761 0.533566
vt 0.216881 0.433761
vt 0.650642 0.137150
vt 0.845211 0.533565
vt 0.570911 0.533565
vn 0.0000 1.0000 -0.0000
vn 0.0000 0.0000 1.0000
vn -1.0000 0.0000 0.0000
vn 0.0000 -1.0000 0.0000
vn 1.0000 0.0000 0.0000
vn 0.0000 0.0000 -1.0000
vn 0.4283 0.9036 0.0000
vn -0.8714 0.4906 0.0000
s off
f 1/1/1 12/2/1 11/3/1
f 4/4/2 25/5/2 8/6/2
f 7/7/3 6/8/3 8/9/3
f 2/10/4 8/11/4 6/12/4
f 3/13/5 17/14/5 1/15/5
f 5/16/6 2/17/6 6/18/6
f 9/19/2 14/20/2 10/21/2
f 7/22/1 9/23/1 10/24/1
f 5/25/1 10/24/1 12/2/1
f 3/26/1 11/3/1 9/23/1
f 16/27/1 13/28/1 15/29/1
f 12/30/6 15/31/6 11/32/6
f 11/33/5 13/34/5 9/35/5
f 10/36/3 16/37/3 12/30/3
f 18/38/4 24/39/4 20/40/4
f 4/41/5 19/42/5 3/13/5
f 1/15/5 18/43/5 2/44/5
f 2/44/5 20/45/5 4/41/5
f 21/46/7 24/47/7 22/48/7
f 20/49/2 23/50/2 19/51/2
f 19/52/8 21/53/8 17/54/8
f 18/55/6 21/53/6 22/56/6
f 27/57/5 32/58/5 28/59/5
f 7/60/2 27/61/2 3/62/2
f 3/62/2 28/63/2 4/4/2
f 8/6/2 26/64/2 7/60/2
f 31/65/2 29/66/2 32/67/2
f 26/68/1 31/69/1 27/70/1
f 25/71/3 30/72/3 26/68/3
f 28/73/4 29/74/4 25/75/4
f 1/1/1 5/25/1 12/2/1
f 4/4/2 28/63/2 25/5/2
f 7/7/3 5/76/3 6/8/3
f 2/10/4 4/77/4 8/11/4
f 3/13/5 19/42/5 17/14/5
f 5/16/6 1/78/6 2/17/6
f 9/19/2 13/79/2 14/20/2
f 7/22/1 3/26/1 9/23/1
f 5/25/1 7/22/1 10/24/1
f 3/26/1 1/1/1 11/3/1
f 16/27/1 14/80/1 13/28/1
f 12/30/6 16/37/6 15/31/6
f 11/33/5 15/81/5 13/34/5
f 10/36/3 14/82/3 16/37/3
f 18/38/4 22/83/4 24/39/4
f 4/41/5 20/45/5 19/42/5
f 1/15/5 17/14/5 18/43/5
f 2/44/5 18/43/5 20/45/5
f 21/46/7 23/84/7 24/47/7
f 20/49/2 24/85/2 23/50/2
f 19/52/8 23/86/8 21/53/8
f 18/55/6 17/54/6 21/53/6
f 27/57/5 31/87/5 32/58/5
f 7/60/2 26/64/2 27/61/2
f 3/62/2 27/61/2 28/63/2
f 8/6/2 25/5/2 26/64/2
f 31/65/2 30/88/2 29/66/2
f 26/68/1 30/72/1 31/69/1
f 25/71/3 29/89/3 30/72/3
f 28/73/4 32/90/4 29/74/4
