# Blender v2.82 (sub 7) OBJ File: ''
# www.blender.org
mtllib cube.mtl
o Cube
v 39.866074 18.167089 -5.287074
v 30.555836 16.167089 -5.287074
v 39.866074 18.167089 -3.287074
v 30.555836 16.167089 -3.287074
v 18.707901 18.167089 -5.287074
v 28.555836 16.167089 -5.287074
v 18.707901 18.167089 -3.287074
v 28.555836 16.167089 -3.287074
v 39.866074 17.667089 -5.287074
v 32.007126 17.167089 -6.738365
v 30.555836 16.667089 -5.287074
v 28.555836 16.667089 -3.287074
v 27.104546 17.167089 -1.835783
v 18.707901 17.667089 -3.287074
v 39.866074 17.667089 -3.287074
v 32.007126 17.167089 -1.835783
v 30.555836 16.667089 -3.287074
v 18.707901 17.667089 -5.287074
v 27.104546 17.167089 -6.738365
v 28.555836 16.667089 -5.287074
v 29.866476 18.807524 -4.597713
v 29.866476 18.807524 -3.976434
v 29.245195 18.807524 -4.597713
v 29.245195 18.807524 -3.976434
v 29.866476 23.171576 -4.597713
v 29.866476 23.171576 -3.976434
v 29.245195 23.171576 -4.597713
v 29.245195 23.171576 -3.976434
v 29.729900 19.766872 -3.976434
v 29.381771 19.766872 -3.976434
v 29.729900 22.212227 -3.976434
v 29.381771 22.212227 -3.976434
v 29.729900 19.766872 -1.222831
v 29.381771 19.766872 -1.222831
v 29.729900 22.212227 -1.222831
v 29.381771 22.212227 -1.222831
v 29.381771 20.844576 -2.762882
v 29.381771 21.134523 -2.762882
v 29.381771 20.844576 -2.436383
v 29.381771 21.134523 -2.436383
v 17.502552 20.844576 -2.762882
v 17.502552 21.134523 -2.762882
v 17.502552 20.844576 -2.436383
v 17.502552 21.134523 -2.436383
vt 0.625000 1.000000
vt 0.625000 0.750000
vt 0.625000 0.750000
vt 0.625000 1.000000
vt 0.562500 0.750000
vt 0.562500 1.000000
vt 0.562500 0.000000
vt 0.625000 0.000000
vt 0.625000 0.250000
vt 0.562500 0.250000
vt 0.125000 0.500000
vt 0.375000 0.500000
vt 0.375000 0.750000
vt 0.125000 0.750000
vt 0.562500 0.500000
vt 0.625000 0.500000
vt 0.375000 0.250000
vt 0.437500 0.250000
vt 0.437500 0.500000
vt 0.500000 0.250000
vt 0.500000 0.500000
vt 0.437500 0.750000
vt 0.500000 0.750000
vt 0.375000 0.000000
vt 0.437500 0.000000
vt 0.500000 0.000000
vt 0.437500 1.000000
vt 0.375000 1.000000
vt 0.500000 1.000000
vt 0.625000 0.500000
vt 0.625000 0.250000
vt 0.625000 0.250000
vt 0.625000 0.500000
vt 0.625000 0.000000
vt 0.875000 0.500000
vt 0.875000 0.750000
vt 0.625000 0.750000
vt 0.625000 0.000000
vt 0.625000 0.750000
vt 0.625000 0.750000
vt 0.625000 0.750000
vt 0.625000 0.750000
vt 0.875000 0.750000
vt 0.625000 0.000000
vt 0.625000 0.000000
vt 0.625000 1.000000
vt 0.625000 1.000000
vt 0.625000 1.000000
vt 0.875000 0.750000
vt 0.875000 0.750000
vt 0.875000 0.750000
vt 0.625000 1.000000
vt 0.625000 1.000000
vt 0.625000 1.000000
vt 0.625000 1.000000
vt 0.625000 1.000000
vt 0.625000 0.000000
vt 0.625000 0.000000
vt 0.625000 0.000000
vt 0.625000 0.000000
vt 0.625000 0.000000
vt 0.625000 0.000000
vt 0.875000 0.750000
vt 0.875000 0.750000
vt 0.625000 1.000000
vn 0.0000 0.7326 0.6806
vn 0.0000 0.0000 1.0000
vn -1.0000 0.0000 0.0000
vn 0.0000 -1.0000 0.0000
vn 1.0000 0.0000 0.0000
vn 0.0000 0.0000 -1.0000
vn 0.0000 -0.9455 -0.3257
vn 0.0000 0.9455 -0.3257
vn 0.3257 -0.9455 0.0000
vn 0.0635 -0.9980 0.0000
vn -0.3257 -0.9455 0.0000
vn -0.0594 -0.9982 0.0000
vn 0.0000 -0.9455 0.3257
vn 0.0000 0.9455 0.3257
vn -0.0607 0.9982 0.0000
vn 0.0639 0.9980 0.0000
vn 0.0000 0.7326 -0.6806
vn 0.0000 1.0000 0.0000
usemtl Material
s off
f 7/1/1 3/2/1 22/3/1 24/4/1
f 15/5/2 3/2/2 7/1/2 14/6/2
f 14/7/3 7/8/3 5/9/3 18/10/3
f 6/11/4 2/12/4 4/13/4 8/14/4
f 9/15/5 1/16/5 3/2/5 15/5/5
f 18/10/6 5/9/6 1/16/6 9/15/6
f 6/17/6 20/18/6 11/19/6 2/12/6
f 20/18/7 19/20/7 10/21/7 11/19/7
f 19/20/8 18/10/8 9/15/8 10/21/8
f 2/12/5 11/19/5 17/22/5 4/13/5
f 11/19/9 10/21/9 16/23/9 17/22/9
f 10/21/10 9/15/10 15/5/10 16/23/10
f 8/24/3 12/25/3 20/18/3 6/17/3
f 12/25/11 13/26/11 19/20/11 20/18/11
f 13/26/12 14/7/12 18/10/12 19/20/12
f 4/13/2 17/22/2 12/27/2 8/28/2
f 17/22/13 16/23/13 13/29/13 12/27/13
f 16/23/14 15/5/14 14/6/14 13/29/14
f 21/30/6 23/31/6 27/32/6 25/33/6
f 5/9/15 7/8/15 24/34/15 23/31/15
f 3/2/16 1/16/16 21/30/16 22/3/16
f 1/16/17 5/9/17 23/31/17 21/30/17
f 25/33/18 27/35/18 28/36/18 26/37/18
f 22/3/5 21/30/5 25/33/5 26/37/5
f 23/31/3 24/34/3 28/38/3 27/32/3
f 22/3/2 26/37/2 31/39/2 29/40/2
f 29/40/5 31/39/5 35/41/5 33/42/5
f 26/37/2 28/36/2 32/43/2 31/39/2
f 28/38/2 24/34/2 30/44/2 32/45/2
f 24/4/2 22/3/2 29/40/2 30/46/2
f 34/47/2 33/42/2 35/41/2 36/48/2
f 30/46/4 29/40/4 33/42/4 34/47/4
f 36/49/3 32/43/3 38/50/3 40/51/3
f 31/39/18 32/43/18 36/49/18 35/41/18
f 37/52/4 39/53/4 43/54/4 41/55/4
f 34/47/3 36/48/3 40/56/3 39/53/3
f 32/45/3 30/44/3 37/57/3 38/58/3
f 30/46/3 34/47/3 39/53/3 37/52/3
f 42/59/3 41/60/3 43/61/3 44/62/3
f 38/58/6 37/57/6 41/60/6 42/59/6
f 40/51/18 38/50/18 42/63/18 44/64/18
f 39/53/2 40/56/2 44/65/2 43/54/2
