# Blender v2.82 (sub 7) OBJ File: ''
# www.blender.org
mtllib player.mtl
o Cube
v 0.059610 0.990032 -0.059610
v 1.000000 -1.000000 -1.000000
v 0.059610 0.990032 0.059610
v 1.000000 -1.000000 1.000000
v -0.059610 0.990032 -0.059610
v -1.000000 -1.000000 -1.000000
v -0.059610 0.990032 0.059610
v -1.000000 -1.000000 1.000000
v 1.000000 0.000000 -1.000000
v -1.000000 0.000000 1.000000
v 1.000000 0.000000 1.000000
v -1.000000 0.000000 -1.000000
v -0.895252 0.250000 0.895252
v -0.744111 0.500000 0.744111
v -0.528796 0.750000 0.528796
v 0.528796 0.750000 -0.528796
v 0.744111 0.500000 -0.744111
v 0.895252 0.250000 -0.895252
v 0.528796 0.750000 0.528796
v 0.744111 0.500000 0.744111
v 0.895252 0.250000 0.895252
v -0.528796 0.750000 -0.528796
v -0.744111 0.500000 -0.744111
v -0.895252 0.250000 -0.895252
v -0.404114 0.833333 0.404114
v -0.279432 0.916667 0.279432
v 0.279432 0.916667 -0.279432
v 0.404114 0.833333 -0.404114
v 0.279432 0.916667 0.279432
v 0.404114 0.833333 0.404114
v -0.279432 0.916667 -0.279432
v -0.404114 0.833333 -0.404114
vt 0.625000 0.500000
vt 0.875000 0.500000
vt 0.875000 0.750000
vt 0.625000 0.750000
vt 0.614583 0.750000
vt 0.625000 1.000000
vt 0.614583 1.000000
vt 0.614583 0.000000
vt 0.625000 0.000000
vt 0.625000 0.250000
vt 0.614583 0.250000
vt 0.125000 0.500000
vt 0.375000 0.500000
vt 0.375000 0.750000
vt 0.125000 0.750000
vt 0.614583 0.500000
vt 0.375000 0.250000
vt 0.500000 0.250000
vt 0.500000 0.500000
vt 0.500000 0.750000
vt 0.375000 0.000000
vt 0.500000 0.000000
vt 0.500000 1.000000
vt 0.375000 1.000000
vt 0.531250 0.250000
vt 0.531250 0.500000
vt 0.562500 0.250000
vt 0.562500 0.500000
vt 0.593750 0.250000
vt 0.593750 0.500000
vt 0.531250 0.750000
vt 0.562500 0.750000
vt 0.593750 0.750000
vt 0.531250 0.000000
vt 0.562500 0.000000
vt 0.593750 0.000000
vt 0.531250 1.000000
vt 0.562500 1.000000
vt 0.593750 1.000000
vt 0.604167 0.250000
vt 0.604167 0.500000
vt 0.604167 0.750000
vt 0.604167 0.000000
vt 0.604167 1.000000
vn 0.0000 1.0000 0.0000
vn -0.0000 0.9486 0.3166
vn -0.3166 0.9486 0.0000
vn 0.0000 -1.0000 0.0000
vn 0.3166 0.9486 0.0000
vn 0.0000 0.9486 -0.3166
vn 0.0000 0.0000 -1.0000
vn 1.0000 0.0000 0.0000
vn -1.0000 0.0000 0.0000
vn 0.0000 0.0000 1.0000
vn 0.0000 0.3864 -0.9223
vn 0.0000 0.5174 -0.8558
vn 0.0000 0.6526 -0.7577
vn 0.9223 0.3864 0.0000
vn 0.8558 0.5174 0.0000
vn 0.7577 0.6526 0.0000
vn -0.9223 0.3864 0.0000
vn -0.8558 0.5174 0.0000
vn -0.7577 0.6526 0.0000
vn 0.0000 0.3864 0.9223
vn 0.0000 0.5174 0.8558
vn 0.0000 0.6526 0.7577
vn 0.0000 0.8314 -0.5557
vn 0.5557 0.8314 0.0000
vn -0.5557 0.8314 0.0000
vn -0.0000 0.8314 0.5557
usemtl Material
s off
f 1/1/1 5/2/1 7/3/1 3/4/1
f 29/5/2 3/4/2 7/6/2 26/7/2
f 26/8/3 7/9/3 5/10/3 31/11/3
f 6/12/4 2/13/4 4/14/4 8/15/4
f 27/16/5 1/1/5 3/4/5 29/5/5
f 31/11/6 5/10/6 1/1/6 27/16/6
f 6/17/7 12/18/7 9/19/7 2/13/7
f 2/13/8 9/19/8 11/20/8 4/14/8
f 8/21/9 10/22/9 12/18/9 6/17/9
f 4/14/10 11/20/10 10/23/10 8/24/10
f 12/18/11 24/25/11 18/26/11 9/19/11
f 24/25/12 23/27/12 17/28/12 18/26/12
f 23/27/13 22/29/13 16/30/13 17/28/13
f 9/19/14 18/26/14 21/31/14 11/20/14
f 18/26/15 17/28/15 20/32/15 21/31/15
f 17/28/16 16/30/16 19/33/16 20/32/16
f 10/22/17 13/34/17 24/25/17 12/18/17
f 13/34/18 14/35/18 23/27/18 24/25/18
f 14/35/19 15/36/19 22/29/19 23/27/19
f 11/20/20 21/31/20 13/37/20 10/23/20
f 21/31/21 20/32/21 14/38/21 13/37/21
f 20/32/22 19/33/22 15/39/22 14/38/22
f 22/29/23 32/40/23 28/41/23 16/30/23
f 32/40/23 31/11/23 27/16/23 28/41/23
f 16/30/24 28/41/24 30/42/24 19/33/24
f 28/41/24 27/16/24 29/5/24 30/42/24
f 15/36/25 25/43/25 32/40/25 22/29/25
f 25/43/25 26/8/25 31/11/25 32/40/25
f 19/33/26 30/42/26 25/44/26 15/39/26
f 30/42/26 29/5/26 26/7/26 25/44/26
